<?xml version="1.0" encoding="UTF-8" standalone="no"?>
<!-- Created with Inkscape (http://www.inkscape.org/) -->

<svg
   xmlns:dc="http://purl.org/dc/elements/1.1/"
   xmlns:cc="http://creativecommons.org/ns#"
   xmlns:rdf="http://www.w3.org/1999/02/22-rdf-syntax-ns#"
   xmlns:svg="http://www.w3.org/2000/svg"
   xmlns="http://www.w3.org/2000/svg"
   xmlns:sodipodi="http://sodipodi.sourceforge.net/DTD/sodipodi-0.dtd"
   xmlns:inkscape="http://www.inkscape.org/namespaces/inkscape"
   width="210mm"
   height="297mm"
   viewBox="0 0 210 297"
   version="1.1"
   id="svg8"
   inkscape:version="0.92.4 (5da689c313, 2019-01-14)"
   sodipodi:docname="x_bg.svg">
  <defs
     id="defs2" />
  <sodipodi:namedview
     id="base"
     pagecolor="#ffffff"
     bordercolor="#666666"
     borderopacity="1.0"
     inkscape:pageopacity="0.0"
     inkscape:pageshadow="2"
     inkscape:zoom="0.49497475"
     inkscape:cx="378.19694"
     inkscape:cy="677.69441"
     inkscape:document-units="mm"
     inkscape:current-layer="layer1"
     showgrid="false"
     inkscape:window-width="1920"
     inkscape:window-height="1017"
     inkscape:window-x="-8"
     inkscape:window-y="-8"
     inkscape:window-maximized="1" />
  <metadata
     id="metadata5">
    <rdf:RDF>
      <cc:Work
         rdf:about="">
        <dc:format>image/svg+xml</dc:format>
        <dc:type
           rdf:resource="http://purl.org/dc/dcmitype/StillImage" />
        <dc:title />
      </cc:Work>
    </rdf:RDF>
  </metadata>
  <g
     inkscape:label="Layer 1"
     inkscape:groupmode="layer"
     id="layer1">
    <path
       style="fill:#000015;stroke-width:12.8;fill-opacity:1;stroke:#3f3840;stroke-opacity:1;stroke-miterlimit:4;stroke-dasharray:none;paint-order:markers stroke fill;stroke-linecap:round;stroke-linejoin:round"
       d="m 59.239936,206.63535 c -2.71734,-2.93011 -11.2123,-14.81941 -14.61066,-20.44864 -2.20124,-3.64627 -2.33283,-4.31333 -1.28684,-6.5235 2.24818,-4.75038 9.76025,-14.62659 22.37569,-29.41759 16.85354,-19.75997 20.08798,-23.61568 20.33588,-24.24204 0.39072,-0.98721 0.28827,-6.20644 -0.1855,-9.45001 -0.98722,-6.75883 -2.13384,-11.59996 -5.28178,-22.299992 -5.59055,-19.002613 -7.17205,-26.54151 -6.96362,-33.195025 0.0969,-3.094827 0.18529,-3.61984 0.85859,-5.102746 1.43751,-3.165997 4.36329,-5.042576 8.24956,-5.29122 2.60687,-0.166788 4.26786,0.185281 7.113684,1.50783 5.13176,2.384908 10.43388,7.669666 15.55196,15.501028 1.28309,1.963293 9.54511,16.395483 12.53025,21.887973 0.21599,0.39741 1.81041,-1.05887 10.67246,-9.747847 11.30718,-11.086364 14.15704,-13.749848 17.99845,-16.821345 6.19886,-4.956465 10.86824,-7.358302 14.3181,-7.364952 4.10266,-0.0079 9.97559,5.299993 11.93009,10.7823 0.60311,1.691712 0.90129,4.54034 0.62783,5.997975 -0.24474,1.304582 -1.40323,2.540656 -3.24292,3.460084 -6.2583,3.127733 -25.72156,30.255987 -35.3589,49.283887 -4.17759,8.24821 -4.79242,10.63627 -3.7616,14.61039 1.97981,7.63271 6.80421,17.91663 12.6532,26.97214 3.48378,5.39365 4.4217,7.36262 4.4217,9.28244 0,1.43346 -0.17168,1.78308 -5.85009,11.91371 -3.21755,5.74031 -6.03828,10.58575 -6.26828,10.76765 -1.64777,1.30317 -4.57123,-0.86519 -12.12625,-8.99417 -9.74307,-10.48327 -23.71134,-25.09295 -23.91733,-25.0156 -0.11272,0.0423 -4.52101,5.19664 -9.7962,11.45404 -10.493654,12.4475 -11.323684,13.41507 -15.989874,18.63942 -6.91121,7.73793 -12.33615,12.97829 -13.43542,12.97829 -0.28564,0 -0.98862,-0.50602 -1.56218,-1.12448 z"
       id="path21"
       inkscape:connector-curvature="0" />
  </g>
</svg>
